# xmcd
#
# Track frame offsets:
#	150
#	17656
#	34639
#	48586
#	71591
#	85121
#	106301
#	119240
#	129749
#	142169
#	155179
#	167210
#	180046
#	190262
#	217052
#	228466
#	252452
#	267010
#	298322
#	313220
#	323436
#
# Disc length: 4555 seconds
# Revision: 0
# Processed by: cddbd v1.5.2PL0 Copyright (c) Steve Scherf et al.
# Submitted via: dBpowerAMP V12.0
#
DISCID=4211c915
DTITLE=Livin' Blues - More Livin' Blues [CD 1)
DYEAR=2016
DGENRE=Blues Rock
TTITLE0=Going Down Slow (1967)
TTITLE1=You Don't Know How Much I Love You (1967)
TTITLE2=Born in Chicago (1968)
TTITLE3=One Night Boy (1968)
TTITLE4=Rock Me Baby (1968)
TTITLE5=Lonesome Road (1968)
TTITLE6=Murphy McCoy (Fist Single 1968)
TTITLE7=My Sister Kate (B Side Single Murphy McCoy)
TTITLE8=You Better Watch Yourself (Sonny Boy) (Single 1968)
TTITLE9=Wang Dang Doodle (Single Version)
TTITLE10=Crazy Woman (B Side Single Wang Dang Doodle 1970)
TTITLE11=Black Lisa (Poor Elijah) (Single 1971)
TTITLE12=Red Mountain River (B Side Single Black Lisa 1971)
TTITLE13=I Don't Know (Recorded in 1971)
TTITLE14=Choice (Single 1972)
TTITLE15=Selection (B Side Single Choice 1972)
TTITLE16=L.B. Boogie (Single Version)
TTITLE17=Johnny W (B Side Single L.B. Boogie 1972)
TTITLE18=Boogie Woogie Woman (Single 1974)
TTITLE19=Ricochet (B Side Single Boogie Woogie Woman 1974)
TTITLE20=Crazy Joe (Demo)
EXTD=
EXTT0=
EXTT1=
EXTT2=
EXTT3=
EXTT4=
EXTT5=
EXTT6=
EXTT7=
EXTT8=
EXTT9=
EXTT10=
EXTT11=
EXTT12=
EXTT13=
EXTT14=
EXTT15=
EXTT16=
EXTT17=
EXTT18=
EXTT19=
EXTT20=
PLAYORDER=
